<svg id="visual" viewBox="0 0 960 540" width="960" height="540" xmlns="http://www.w3.org/2000/svg" xmlns:xlink="http://www.w3.org/1999/xlink" version="1.1"><rect x="0" y="0" width="960" height="540" fill="#fff3cf"></rect><path d="M0 257L20 258.5C40 260 80 263 120 263.3C160 263.7 200 261.3 240 268.2C280 275 320 291 360 298.5C400 306 440 305 480 290.3C520 275.7 560 247.3 600 256.8C640 266.3 680 313.7 720 329.2C760 344.7 800 328.3 840 308C880 287.7 920 263.3 940 251.2L960 239L960 0L940 0C920 0 880 0 840 0C800 0 760 0 720 0C680 0 640 0 600 0C560 0 520 0 480 0C440 0 400 0 360 0C320 0 280 0 240 0C200 0 160 0 120 0C80 0 40 0 20 0L0 0Z" fill="#ffd0b2"></path><path d="M0 308L20 285.2C40 262.3 80 216.7 120 215.3C160 214 200 257 240 268.2C280 279.3 320 258.7 360 235.5C400 212.3 440 186.7 480 194.2C520 201.7 560 242.3 600 252.7C640 263 680 243 720 242.5C760 242 800 261 840 268.2C880 275.3 920 270.7 940 268.3L960 266L960 0L940 0C920 0 880 0 840 0C800 0 760 0 720 0C680 0 640 0 600 0C560 0 520 0 480 0C440 0 400 0 360 0C320 0 280 0 240 0C200 0 160 0 120 0C80 0 40 0 20 0L0 0Z" fill="#ffc6ac"></path><path d="M0 131L20 129.8C40 128.7 80 126.3 120 127.7C160 129 200 134 240 146C280 158 320 177 360 172.8C400 168.7 440 141.3 480 131.5C520 121.7 560 129.3 600 143C640 156.7 680 176.3 720 177.3C760 178.3 800 160.7 840 150.8C880 141 920 139 940 138L960 137L960 0L940 0C920 0 880 0 840 0C800 0 760 0 720 0C680 0 640 0 600 0C560 0 520 0 480 0C440 0 400 0 360 0C320 0 280 0 240 0C200 0 160 0 120 0C80 0 40 0 20 0L0 0Z" fill="#ffbba8"></path><path d="M0 151L20 145.7C40 140.3 80 129.7 120 133.5C160 137.3 200 155.7 240 148C280 140.3 320 106.7 360 95C400 83.3 440 93.7 480 96.3C520 99 560 94 600 91.8C640 89.7 680 90.3 720 94.8C760 99.3 800 107.7 840 117.5C880 127.3 920 138.7 940 144.3L960 150L960 0L940 0C920 0 880 0 840 0C800 0 760 0 720 0C680 0 640 0 600 0C560 0 520 0 480 0C440 0 400 0 360 0C320 0 280 0 240 0C200 0 160 0 120 0C80 0 40 0 20 0L0 0Z" fill="#ffb0a7"></path><path d="M0 69L20 73.3C40 77.7 80 86.3 120 82C160 77.7 200 60.3 240 62.5C280 64.7 320 86.3 360 89.3C400 92.3 440 76.7 480 69.8C520 63 560 65 600 64.8C640 64.7 680 62.3 720 65.8C760 69.3 800 78.7 840 73.3C880 68 920 48 940 38L960 28L960 0L940 0C920 0 880 0 840 0C800 0 760 0 720 0C680 0 640 0 600 0C560 0 520 0 480 0C440 0 400 0 360 0C320 0 280 0 240 0C200 0 160 0 120 0C80 0 40 0 20 0L0 0Z" fill="#ffa5a8"></path></svg>