<svg id="visual" viewBox="0 0 900 450" width="900" height="450" xmlns="http://www.w3.org/2000/svg" xmlns:xlink="http://www.w3.org/1999/xlink" version="1.1"><rect x="0" y="0" width="900" height="450" fill="#fff3cf"></rect><path d="M0 159L21.5 169.5C43 180 86 201 128.8 211.2C171.7 221.3 214.3 220.7 257.2 220.5C300 220.3 343 220.7 385.8 218.8C428.7 217 471.3 213 514.2 213C557 213 600 217 642.8 224.8C685.7 232.7 728.3 244.3 771.2 241.3C814 238.3 857 220.7 878.5 211.8L900 203L900 0L878.5 0C857 0 814 0 771.2 0C728.3 0 685.7 0 642.8 0C600 0 557 0 514.2 0C471.3 0 428.7 0 385.8 0C343 0 300 0 257.2 0C214.3 0 171.7 0 128.8 0C86 0 43 0 21.5 0L0 0Z" fill="#ffd89d"></path><path d="M0 119L21.5 123.2C43 127.3 86 135.7 128.8 148.5C171.7 161.3 214.3 178.7 257.2 189.8C300 201 343 206 385.8 205C428.7 204 471.3 197 514.2 188.8C557 180.7 600 171.3 642.8 161.8C685.7 152.3 728.3 142.7 771.2 141.2C814 139.7 857 146.3 878.5 149.7L900 153L900 0L878.5 0C857 0 814 0 771.2 0C728.3 0 685.7 0 642.8 0C600 0 557 0 514.2 0C471.3 0 428.7 0 385.8 0C343 0 300 0 257.2 0C214.3 0 171.7 0 128.8 0C86 0 43 0 21.5 0L0 0Z" fill="#d4a070"></path><path d="M0 125L21.5 129C43 133 86 141 128.8 145.2C171.7 149.3 214.3 149.7 257.2 145.3C300 141 343 132 385.8 121.8C428.7 111.7 471.3 100.3 514.2 93.7C557 87 600 85 642.8 87.5C685.7 90 728.3 97 771.2 98.7C814 100.3 857 96.7 878.5 94.8L900 93L900 0L878.5 0C857 0 814 0 771.2 0C728.3 0 685.7 0 642.8 0C600 0 557 0 514.2 0C471.3 0 428.7 0 385.8 0C343 0 300 0 257.2 0C214.3 0 171.7 0 128.8 0C86 0 43 0 21.5 0L0 0Z" fill="#a76b48"></path><path d="M0 101L21.5 104.5C43 108 86 115 128.8 110C171.7 105 214.3 88 257.2 89C300 90 343 109 385.8 114.7C428.7 120.3 471.3 112.7 514.2 111C557 109.3 600 113.7 642.8 105.2C685.7 96.7 728.3 75.3 771.2 69C814 62.7 857 71.3 878.5 75.7L900 80L900 0L878.5 0C857 0 814 0 771.2 0C728.3 0 685.7 0 642.8 0C600 0 557 0 514.2 0C471.3 0 428.7 0 385.8 0C343 0 300 0 257.2 0C214.3 0 171.7 0 128.8 0C86 0 43 0 21.5 0L0 0Z" fill="#7a3926"></path><path d="M0 34L21.5 32.8C43 31.7 86 29.3 128.8 36.2C171.7 43 214.3 59 257.2 61.5C300 64 343 53 385.8 45.3C428.7 37.7 471.3 33.3 514.2 33.7C557 34 600 39 642.8 44C685.7 49 728.3 54 771.2 55.7C814 57.3 857 55.7 878.5 54.8L900 54L900 0L878.5 0C857 0 814 0 771.2 0C728.3 0 685.7 0 642.8 0C600 0 557 0 514.2 0C471.3 0 428.7 0 385.8 0C343 0 300 0 257.2 0C214.3 0 171.7 0 128.8 0C86 0 43 0 21.5 0L0 0Z" fill="#4c0606"></path></svg>